<?xml version="1.0" standalone="no"?>
<!DOCTYPE svg PUBLIC "-//W3C//DTD SVG 20010904//EN"
 "http://www.w3.org/TR/2001/REC-SVG-20010904/DTD/svg10.dtd">
<svg version="1.0" xmlns="http://www.w3.org/2000/svg"
 width="666.000000pt" height="666.000000pt" viewBox="0 0 666.000000 666.000000"
 preserveAspectRatio="xMidYMid meet">
<metadata>
Created by potrace 1.14, written by Peter Selinger 2001-2017
</metadata>
<g transform="translate(0.000000,666.000000) scale(0.100000,-0.100000)"
fill="#000000" stroke="none">
<path d="M4935 3373 l0 -1378 248 0 c136 0 248 2 248 5 1 3 2 623 3 1378 l1
1372 -250 0 -251 0 1 -1377z"/>
<path d="M1286 3373 c1 -753 2 -1370 3 -1373 0 -3 116 -5 256 -6 l255 0 0
1373 0 1373 -258 0 -257 0 1 -1367z"/>
<path d="M670 3367 l0 -1012 243 0 242 0 3 1013 2 1012 -245 0 -245 0 0 -1013z"/>
<path d="M5572 4340 c-6 -4 -9 -1995 -3 -2020 2 -9 475 -7 481 1 4 6 5 2002 1
2019 -1 7 -469 8 -479 0z"/>
<path d="M210 3370 l0 -770 165 0 165 0 0 770 0 770 -165 0 -165 0 0 -770z"/>
<path d="M6180 3330 l0 -770 168 0 168 0 -1 768 0 767 -167 3 -168 2 0 -770z"/>
<path d="M1974 3901 c-2 -2 -4 -24 -4 -48 0 -39 2 -43 25 -43 l25 0 -3 -222
c-2 -216 -3 -223 -22 -223 -17 0 -20 -8 -23 -47 l-3 -48 84 0 85 0 4 45 c3 41
-2 50 -24 46 -9 -1 -10 13 -11 109 l0 65 46 3 47 3 -2 -88 c-2 -70 -6 -88 -18
-88 -11 0 -16 -13 -18 -47 l-3 -48 85 0 86 0 0 49 c0 44 -2 49 -20 46 -24 -5
-22 -22 -22 215 0 247 -1 230 22 230 17 0 20 7 20 48 l0 49 -82 -1 -83 -1 -3
-47 c-3 -43 -1 -48 18 -48 19 0 20 -5 19 -90 l-1 -90 -43 0 c-26 0 -44 5 -47
13 -3 10 -2 132 1 160 1 4 7 7 15 7 16 0 25 48 16 76 -6 16 -18 19 -84 19 -42
0 -79 -1 -82 -4z"/>
<path d="M2541 3896 c-5 -6 -21 -81 -36 -166 -15 -85 -29 -162 -30 -170 -23
-124 -34 -194 -40 -238 l-6 -53 43 3 43 3 15 85 15 85 34 3 c41 4 47 -4 57
-77 4 -31 8 -59 10 -63 1 -5 2 -15 3 -23 1 -11 13 -15 47 -15 44 0 45 1 40 28
-3 15 -21 115 -41 222 -19 107 -37 206 -40 220 -3 14 -7 45 -10 70 -11 93 -12
95 -55 96 -22 1 -44 -4 -49 -10z m58 -333 c1 -16 -3 -20 -18 -16 -11 3 -18 10
-16 16 2 7 7 26 11 42 l7 30 7 -25 c5 -14 8 -35 9 -47z"/>
<path d="M2835 3902 c-2 -3 -5 -146 -5 -318 l0 -314 45 0 45 0 0 135 0 135 45
0 45 0 0 -135 0 -135 45 0 45 0 0 143 c0 100 -4 147 -12 155 -10 10 -10 17 0
32 7 12 12 59 12 123 l0 104 -37 39 -36 39 -94 0 c-51 1 -96 -1 -98 -3z m175
-182 l0 -90 -45 0 -45 0 0 90 0 90 45 0 45 0 0 -90z"/>
<path d="M3190 3588 l0 -318 99 0 100 0 35 38 36 37 0 241 0 242 -34 38 -35
39 -100 1 -101 1 0 -319z m180 -1 l0 -223 -39 1 c-22 0 -42 3 -45 6 -5 4 -9
253 -7 402 l1 37 45 0 45 0 0 -223z"/>
<path d="M3597 3871 l-40 -38 0 -241 -1 -241 35 -40 c33 -40 35 -41 101 -41
65 0 67 1 100 39 l34 40 -2 133 c-1 73 -2 136 -3 141 0 4 -30 7 -66 7 l-65 0
0 -45 c0 -41 2 -45 24 -45 23 0 24 -2 22 -87 l-1 -88 -35 0 c-19 -1 -40 1 -45
2 -7 2 -10 81 -10 221 l0 217 48 3 c26 2 47 -1 46 -5 -1 -4 -1 -25 0 -45 1
-36 2 -37 41 -36 22 0 41 5 41 12 8 78 0 107 -45 150 -16 16 -35 21 -80 22
-55 2 -62 -1 -99 -35z"/>
<path d="M3926 3901 c-3 -4 9 -38 26 -76 100 -232 98 -224 98 -397 l0 -158 45
0 c36 0 45 4 46 18 0 9 1 82 2 162 2 157 2 153 97 366 11 23 22 53 25 67 6 24
5 25 -35 22 -23 -2 -42 -5 -44 -6 -1 -2 -17 -40 -36 -84 -54 -128 -51 -127
-93 -30 -21 46 -37 88 -37 94 0 5 -5 13 -12 17 -15 10 -77 13 -82 5z"/>
<path d="M4375 3901 c-3 -2 -5 -145 -5 -318 l0 -313 45 0 45 0 2 173 3 172 43
-135 c24 -74 49 -151 56 -170 l14 -35 12 45 c21 73 92 300 94 300 2 0 3 -78 2
-172 l0 -173 46 -1 46 -1 -1 316 -2 316 -35 -1 c-19 -1 -40 -2 -46 -3 -9 -1
-61 -152 -106 -310 l-12 -45 -57 173 c-31 95 -60 175 -64 179 -7 8 -73 10 -80
3z"/>
<path d="M2612 3119 c-5 -13 -15 -61 -22 -106 -8 -46 -17 -83 -22 -83 -10 0
-11 -30 0 -31 4 0 17 -2 30 -3 12 -2 22 2 22 7 0 6 5 6 13 0 6 -5 18 -8 25 -7
6 1 17 2 22 3 12 1 13 28 1 33 -10 3 -16 33 -27 130 -8 66 -28 94 -42 57z m15
-111 c-3 -8 -6 -5 -6 6 -1 11 2 17 5 13 3 -3 4 -12 1 -19z m11 -62 c-2 -12 -7
-21 -13 -21 -5 0 -11 9 -13 21 -2 13 3 21 13 21 10 0 15 -8 13 -21z"/>
<path d="M2734 3127 c-2 -7 -3 -63 -2 -125 2 -86 6 -110 16 -104 7 5 13 32 13
65 1 31 6 54 10 51 5 -3 9 -12 9 -20 0 -29 41 -103 55 -98 18 7 17 231 -1 238
-16 6 -21 -9 -19 -71 2 -64 -9 -60 -31 12 -17 53 -40 77 -50 52z"/>
<path d="M2933 3128 c-16 -26 -50 -223 -39 -230 16 -10 23 -1 30 38 9 43 25
40 41 -7 7 -19 16 -32 21 -29 12 7 11 40 -6 138 -14 83 -30 115 -47 90z m14
-120 c-3 -8 -6 -5 -6 6 -1 11 2 17 5 13 3 -3 4 -12 1 -19z"/>
<path d="M3146 3120 c-9 -35 -3 -220 8 -221 13 -2 68 -2 79 0 4 1 7 8 7 16 0
10 -10 15 -29 15 -22 0 -30 5 -33 23 -6 33 1 47 24 47 13 0 18 5 16 18 -2 9
-11 16 -20 14 -11 -2 -17 7 -20 28 -6 37 -3 40 34 40 22 0 29 4 26 16 -4 23
-86 27 -92 4z"/>
<path d="M3420 3132 c-26 -10 -37 -27 -38 -62 -1 -39 21 -70 50 -70 14 0 18
-8 18 -35 0 -29 -4 -35 -21 -35 -11 0 -18 4 -14 9 3 6 -3 9 -14 8 -33 -2 -13
-44 25 -51 35 -7 57 19 56 65 -2 51 -15 73 -41 74 -11 0 -21 3 -21 8 -1 48 2
57 15 57 8 0 15 -4 15 -10 0 -5 7 -10 16 -10 21 0 14 29 -11 45 -11 7 -27 10
-35 7z"/>
<path d="M3574 3132 c-18 -11 -59 -228 -45 -236 14 -9 29 9 33 38 1 16 8 31
15 33 11 4 29 -33 25 -53 -1 -7 4 -14 13 -18 19 -7 19 12 0 134 -17 99 -23
114 -41 102z m10 -117 c3 -8 1 -15 -4 -15 -6 0 -10 7 -10 15 0 8 2 15 4 15 2
0 6 -7 10 -15z"/>
<path d="M3682 3131 c-5 -3 -9 -56 -9 -118 1 -102 2 -113 19 -113 15 0 18 8
18 50 0 41 3 50 18 50 15 0 17 -8 16 -54 -2 -45 1 -54 14 -52 15 3 17 18 18
109 1 73 -3 110 -11 117 -15 12 -70 20 -83 11z m62 -54 c-1 -9 -2 -24 -3 -32
-2 -28 -29 -16 -33 15 -3 17 -2 32 1 35 11 12 36 -1 35 -18z"/>
<path d="M3864 3132 c-17 -10 -50 -181 -45 -231 2 -23 31 8 31 34 0 12 3 24 6
28 12 11 34 -6 34 -27 0 -25 10 -40 28 -43 16 -4 16 -7 -9 122 -23 116 -27
128 -45 117z m13 -117 c0 -8 -4 -15 -9 -15 -10 0 -11 14 -1 23 9 10 10 9 10
-8z"/>
<path d="M3967 3133 c-7 -13 -2 -233 6 -233 4 0 11 0 17 0 5 0 9 17 8 38 -1
56 1 62 17 62 11 0 15 -12 15 -49 0 -48 12 -72 25 -51 4 6 6 56 6 113 0 131 1
124 -16 124 -11 0 -15 -13 -15 -54 0 -29 -4 -53 -9 -53 -16 0 -27 25 -25 57 2
30 -19 63 -29 46z"/>
</g>
</svg>
